<svg xmlns="http://www.w3.org/2000/svg" width="1600" height="900" xmlns:c2pa="http://c2pa.org/manifest"><metadata><c2pa:manifest>AAAWgmp1bWIAAAAeanVtZGMycGEAEQAQgAAAqgA4m3EDYzJwYQAAABZcanVtYgAAAEdqdW1kYzJtYQARABCAAACqADibcQN1cm46YzJwYTpjZTRmODdkMi1iMTY4LTQyMDYtODlkMS00Mjc4MjZiZjk1YzIAAAADl2p1bWIAAAApanVtZGMyYXMAEQAQgAAAqgA4m3EDYzJwYS5hc3NlcnRpb25zAAAAALxqdW1iAAAARGp1bWRjYm9yABEAEIAAAKoAOJtxE2MycGEuaW5ncmVkaWVudC52MwAAAAAYYzJzaF8O5afZzYQF8m6RLCfbaBUAAABwY2JvcqNpZGM6Zm9ybWF0bWltYWdlL3N2Zyt4bWxqaW5zdGFuY2VJRHgseG1wOmlpZDplMTA3NzE5Yi01YTM1LTRkNDgtOGUxZS1hMTJiZmY2MTU2ZDFscmVsYXRpb25zaGlwaHBhcmVudE9mAAAB4mp1bWIAAABBanVtZGNib3IAEQAQgAAAqgA4m3ETYzJwYS5hY3Rpb25zLnYyAAAAABhjMnNo867WgY4YV9ry3o3ILncrAQAAAZljYm9yomdhY3Rpb25zgqJmYWN0aW9ua2MycGEub3BlbmVkanBhcmFtZXRlcnOha2luZ3JlZGllbnRzgaJjdXJseC1zZWxmI2p1bWJmPWMycGEuYXNzZXJ0aW9ucy9jMnBhLmluZ3JlZGllbnQudjNkaGFzaFgg3ZwWZ9kvhCcSFhrk1b5AwU0HeiPtWtQLOoOWm/69Ml2kZmFjdGlvbngdY29tLmFudGhyb3BpYy5jbGF1ZGUucHJvdmlkZWRqcGFyYW1ldGVyc6F4H2NvbS5hbnRocm9waWMub3JpZ2luLWNvbmZpZGVuY2VndW5rbm93bmtkZXNjcmlwdGlvbnhmQ2xhdWRlIHByb3ZpZGVkIHRoaXMgZmlsZSBhdCB0aGUgcmVxdWVzdCBvZiBhIHVzZXIgYW5kIG1heSBoYXZlIGNyZWF0ZWQgb3IgbW9kaWZpZWQgdGhlIGZpbGUgY29udGVudHMubXNvZnR3YXJlQWdlbnShZG5hbWVmQ2xhdWRlcmFsbEFjdGlvbnNJbmNsdWRlZPUAAADIanVtYgAAAEBqdW1kY2JvcgARABCAAACqADibcRNjMnBhLmhhc2guZGF0YQAAAAAYYzJzaGU9uF3JGSTJNKGvpSCZ39MAAACAY2JvcqVjYWxnZnNoYTI1NmNwYWRNAAAAAAAAAAAAAAAAAGRoYXNoWCAz1giWpMZhJMo6Mfgzq7lmhODnSgVSkkYs71cXvt2a9mRuYW1lbmp1bWJmIG1hbmlmZXN0amV4Y2x1c2lvbnOBomVzdGFydBiBZmxlbmd0aBkeBAAAAj5qdW1iAAAAJ2p1bWRjMmNsABEAEIAAAKoAOJtxA2MycGEuY2xhaW0udjIAAAACD2Nib3KlY2FsZ2ZzaGEyNTZpc2lnbmF0dXJleE1zZWxmI2p1bWJmPS9jMnBhL3VybjpjMnBhOmNlNGY4N2QyLWIxNjgtNDIwNi04OWQxLTQyNzgyNmJmOTVjMi9jMnBhLnNpZ25hdHVyZWppbnN0YW5jZUlEeCx4bXA6aWlkOjkxM2Y5NGVkLTEwMDYtNDhmYi04ODM4LWJmNzEwNGExZWIxNnJjcmVhdGVkX2Fzc2VydGlvbnODomN1cmx4LXNlbGYjanVtYmY9YzJwYS5hc3NlcnRpb25zL2MycGEuaW5ncmVkaWVudC52M2RoYXNoWCDdnBZn2S+EJxIWGuTVvkDBTQd6I+1a1As6g5ab/r0yXaJjdXJseCpzZWxmI2p1bWJmPWMycGEuYXNzZXJ0aW9ucy9jMnBhLmFjdGlvbnMudjJkaGFzaFgg0cb8gAGT9U4NBpOnRB3h0vnC6eSVHPBEOa9yrS328KqiY3VybHgpc2VsZiNqdW1iZj1jMnBhLmFzc2VydGlvbnMvYzJwYS5oYXNoLmRhdGFkaGFzaFggc8+mlAWO4BXRv3eoj7vdflfUKriHqnUmn7lYYBXQoCl0Y2xhaW1fZ2VuZXJhdG9yX2luZm+jZG5hbWVvQW50aHJvcGljIEZpbGVzZ3ZlcnNpb25lMS4wLjBrc3BlY1ZlcnNpb25lMi40LjAAABA4anVtYgAAAChqdW1kYzJjcwARABCAAACqADibcQNjMnBhLnNpZ25hdHVyZQAAABAIY2JvctKEWQISogEmGCFZAgowggIGMIIBjaADAgECAhRA5aAK7sI50L64g/oGQgU9Z1UTADAKBggqhkjOPQQDAzBJMRcwFQYDVQQKEw5BbnRocm9waWMsIFBCQzEuMCwGA1UEAxMlQW50aHJvcGljIENvbnRlbnQgQ3JlZGVudGlhbHMgUm9vdCBDQTAeFw0yNjA4MDcxODQzNTZaFw0yODA4MDYxOTQzNTZaMEQxFzAVBgNVBAoTDkFudGhyb3BpYywgUEJDMSkwJwYDVQQDEyBBbnRocm9waWMgQ2xhdWRlIENvbnRlbnQgU2lnbmluZzBZMBMGByqGSM49AgEGCCqGSM49AwEHA0IABJh6CmvLUBgFFNU0vUKlOVtE6djd17L5SuwX0LemFisBM3dkd/3cyjxFA3Qo5S46fX0/ihY0VZ7mfb9KF703t5OjWDBWMA4GA1UdDwEB/wQEAwIHgDAVBgNVHSUEDjAMBgorBgEEAYPoXgIBMAwGA1UdEwEB/wQCMAAwHwYDVR0jBBgwFoAUzlHiBIFOZFsj+OPEz5o+nMHXXMIwCgYIKoZIzj0EAwMDZwAwZAIwMXMdFJ4BetLLVY7ORuE9noqbbAZOZn/aArXyTwFAZfKrPzxF2vPoJNf1+UCdg1XGAjBwX1zd9WGqYkqmL5SFqw1QySjr1zJfpJM9+1rdDwSPLMOPOjKuiXjoU/pUUeG9RwmhY3BhZFkNngAAAAAAAAAAAAAAAAAAAAAAAAAAAAAAAAAAAAAAAAAAAAAAAAAAAAAAAAAAAAAAAAAAAAAAAAAAAAAAAAAAAAAAAAAAAAAAAAAAAAAAAAAAAAAAAAAAAAAAAAAAAAAAAAAAAAAAAAAAAAAAAAAAAAAAAAAAAAAAAAAAAAAAAAAAAAAAAAAAAAAAAAAAAAAAAAAAAAAAAAAAAAAAAAAAAAAAAAAAAAAAAAAAAAAAAAAAAAAAAAAAAAAAAAAAAAAAAAAAAAAAAAAAAAAAAAAAAAAAAAAAAAAAAAAAAAAAAAAAAAAAAAAAAAAAAAAAAAAAAAAAAAAAAAAAAAAAAAAAAAAAAAAAAAAAAAAAAAAAAAAAAAAAAAAAAAAAAAAAAAAAAAAAAAAAAAAAAAAAAAAAAAAAAAAAAAAAAAAAAAAAAAAAAAAAAAAAAAAAAAAAAAAAAAAAAAAAAAAAAAAAAAAAAAAAAAAAAAAAAAAAAAAAAAAAAAAAAAAAAAAAAAAAAAAAAAAAAAAAAAAAAAAAAAAAAAAAAAAAAAAAAAAAAAAAAAAAAAAAAAAAAAAAAAAAAAAAAAAAAAAAAAAAAAAAAAAAAAAAAAAAAAAAAAAAAAAAAAAAAAAAAAAAAAAAAAAAAAAAAAAAAAAAAAAAAAAAAAAAAAAAAAAAAAAAAAAAAAAAAAAAAAAAAAAAAAAAAAAAAAAAAAAAAAAAAAAAAAAAAAAAAAAAAAAAAAAAAAAAAAAAAAAAAAAAAAAAAAAAAAAAAAAAAAAAAAAAAAAAAAAAAAAAAAAAAAAAAAAAAAAAAAAAAAAAAAAAAAAAAAAAAAAAAAAAAAAAAAAAAAAAAAAAAAAAAAAAAAAAAAAAAAAAAAAAAAAAAAAAAAAAAAAAAAAAAAAAAAAAAAAAAAAAAAAAAAAAAAAAAAAAAAAAAAAAAAAAAAAAAAAAAAAAAAAAAAAAAAAAAAAAAAAAAAAAAAAAAAAAAAAAAAAAAAAAAAAAAAAAAAAAAAAAAAAAAAAAAAAAAAAAAAAAAAAAAAAAAAAAAAAAAAAAAAAAAAAAAAAAAAAAAAAAAAAAAAAAAAAAAAAAAAAAAAAAAAAAAAAAAAAAAAAAAAAAAAAAAAAAAAAAAAAAAAAAAAAAAAAAAAAAAAAAAAAAAAAAAAAAAAAAAAAAAAAAAAAAAAAAAAAAAAAAAAAAAAAAAAAAAAAAAAAAAAAAAAAAAAAAAAAAAAAAAAAAAAAAAAAAAAAAAAAAAAAAAAAAAAAAAAAAAAAAAAAAAAAAAAAAAAAAAAAAAAAAAAAAAAAAAAAAAAAAAAAAAAAAAAAAAAAAAAAAAAAAAAAAAAAAAAAAAAAAAAAAAAAAAAAAAAAAAAAAAAAAAAAAAAAAAAAAAAAAAAAAAAAAAAAAAAAAAAAAAAAAAAAAAAAAAAAAAAAAAAAAAAAAAAAAAAAAAAAAAAAAAAAAAAAAAAAAAAAAAAAAAAAAAAAAAAAAAAAAAAAAAAAAAAAAAAAAAAAAAAAAAAAAAAAAAAAAAAAAAAAAAAAAAAAAAAAAAAAAAAAAAAAAAAAAAAAAAAAAAAAAAAAAAAAAAAAAAAAAAAAAAAAAAAAAAAAAAAAAAAAAAAAAAAAAAAAAAAAAAAAAAAAAAAAAAAAAAAAAAAAAAAAAAAAAAAAAAAAAAAAAAAAAAAAAAAAAAAAAAAAAAAAAAAAAAAAAAAAAAAAAAAAAAAAAAAAAAAAAAAAAAAAAAAAAAAAAAAAAAAAAAAAAAAAAAAAAAAAAAAAAAAAAAAAAAAAAAAAAAAAAAAAAAAAAAAAAAAAAAAAAAAAAAAAAAAAAAAAAAAAAAAAAAAAAAAAAAAAAAAAAAAAAAAAAAAAAAAAAAAAAAAAAAAAAAAAAAAAAAAAAAAAAAAAAAAAAAAAAAAAAAAAAAAAAAAAAAAAAAAAAAAAAAAAAAAAAAAAAAAAAAAAAAAAAAAAAAAAAAAAAAAAAAAAAAAAAAAAAAAAAAAAAAAAAAAAAAAAAAAAAAAAAAAAAAAAAAAAAAAAAAAAAAAAAAAAAAAAAAAAAAAAAAAAAAAAAAAAAAAAAAAAAAAAAAAAAAAAAAAAAAAAAAAAAAAAAAAAAAAAAAAAAAAAAAAAAAAAAAAAAAAAAAAAAAAAAAAAAAAAAAAAAAAAAAAAAAAAAAAAAAAAAAAAAAAAAAAAAAAAAAAAAAAAAAAAAAAAAAAAAAAAAAAAAAAAAAAAAAAAAAAAAAAAAAAAAAAAAAAAAAAAAAAAAAAAAAAAAAAAAAAAAAAAAAAAAAAAAAAAAAAAAAAAAAAAAAAAAAAAAAAAAAAAAAAAAAAAAAAAAAAAAAAAAAAAAAAAAAAAAAAAAAAAAAAAAAAAAAAAAAAAAAAAAAAAAAAAAAAAAAAAAAAAAAAAAAAAAAAAAAAAAAAAAAAAAAAAAAAAAAAAAAAAAAAAAAAAAAAAAAAAAAAAAAAAAAAAAAAAAAAAAAAAAAAAAAAAAAAAAAAAAAAAAAAAAAAAAAAAAAAAAAAAAAAAAAAAAAAAAAAAAAAAAAAAAAAAAAAAAAAAAAAAAAAAAAAAAAAAAAAAAAAAAAAAAAAAAAAAAAAAAAAAAAAAAAAAAAAAAAAAAAAAAAAAAAAAAAAAAAAAAAAAAAAAAAAAAAAAAAAAAAAAAAAAAAAAAAAAAAAAAAAAAAAAAAAAAAAAAAAAAAAAAAAAAAAAAAAAAAAAAAAAAAAAAAAAAAAAAAAAAAAAAAAAAAAAAAAAAAAAAAAAAAAAAAAAAAAAAAAAAAAAAAAAAAAAAAAAAAAAAAAAAAAAAAAAAAAAAAAAAAAAAAAAAAAAAAAAAAAAAAAAAAAAAAAAAAAAAAAAAAAAAAAAAAAAAAAAAAAAAAAAAAAAAAAAAAAAAAAAAAAAAAAAAAAAAAAAAAAAAAAAAAAAAAAAAAAAAAAAAAAAAAAAAAAAAAAAAAAAAAAAAAAAAAAAAAAAAAAAAAAAAAAAAAAAAAAAAAAAAAAAAAAAAAAAAAAAAAAAAAAAAAAAAAAAAAAAAAAAAAAAAAAAAAAAAAAAAAAAAAAAAAAAAAAAAAAAAAAAAAAAAAAAAAAAAAAAAAAAAAAAAAAAAAAAAAAAAAAAAAAAAAAAAAAAAAAAAAAAAAAAAAAAAAAAAAAAAAAAAAAAAAAAAAAAAAAAAAAAAAAAAAAAAAAAAAAAAAAAAAAAAAAAAAAAAAAAAAAAAAAAAAAAAAAAAAAAAAAAAAAAAAAAAAAAAAAAAAAAAAAAAAAAAAAAAAAAAAAAAAAAAAAAAAAAAAAAAAAAAAAAAAAAAAAAAAAAAAAAAAAAAAAAAAAAAAAAAAAAAAAAAAAAAAAAAAAAAAAAAAAAAAAAAAAAAAAAAAAAAAAAAAAAAAAAAAAAAAAAAAAAAAAAAAAAAAAAAAAAAAAAAAAAAAAAAAAAAAAAAAAAAAAAAAAAAAAAAAAAAAAAAAAAAAAAAAAAAAAAAAAAAAAAAAAAAAAAAAAAAAAAAAAAAAAAAAAAAAAAAAAAAAAAAAAAAAAAAAAAAAAAAAAAAAAAAAAAAAAAAAAAAAAAAAAAAAAAAAAAAAAAAAAAAAAAAAAAAAAAAAAAAAAAAAAAAAAAAAAAAAAAAAAAAAAAAAAAAAAAAAAAAAAAAAAAAAAAAAAAAAAAAAAAAAAAAAAAAAAAAAAAAAAAAAAAAAAAAAAAAAAAAAAAAAAAAAAAAAAAAAAAAAAAAAAAAAAAAAAAAAAAAAAAAAAAAAAAAAAAAAAAAAAAAAAAAAAAAAAAAAAAAAAAAAAAAAAAAAAAAAAAAAAAAAAAAAAAAAAAAAAAAAAAAAAAAAAAAAAAAAAAAAAAAAAAAAAAAAAAAAAAAAAAAAAAAAAAAAAAAAAAAAAAAAAAAAAAAAAAAAAAAAAAAAAAAAAAAAAAAAAAAAAAAAAAAAAAAAAAAAAAAAAAAAAAAAAAAAAAAAAAAAAAAAAAAAAAAAAAAAAAAAAAAAAAAAAAAAAAAAAAAAAAAAAAAAAAAAAAAAAAAAAAAAAAAAAAAAAAAAAAAAAAAAAAAAAAAAAAAAAAAAAAAAAAAAAAAAAAAAAAAAAAAAAAAAAAAAAAAAAAAAAAAAAAAAAAAAAAAAAAAAAAAAAAAAAAAAAAAAAAAAAAAAAAAAAAAAAAAAAAAAAAAAAAAAAAAAAAAAAAAAAAAAAAAAAAAAAAAAAAAAAAAAAAAAAAAAAAAAAAAAAAAAAAAAAAAAAAAAAAAAAAAAAAAAAAAAAAAAAAAAAAAAAAAAAAAAAAAAAAAAAAAAAAAAAAAAAAAAAAAAAAAAAAAAAAAAAAAAAAAAAAAAAAAAAAAAAAAAAAAAAAAAAAAAAAAAAAAAAAAAAAAAAAAAAAAAAAAAAAAAAAAAAAAAAAAAAAAAAAAAAAAAAAAAAAAAAAAAAAAAAAAAAAAAAAAAAAAAAAAAAAAAAAAAAAAAAAAAAAAAAAAAAAAAAAAAAAAAAAAAAAAAAAAAAAAAAAAAAAAAAAAAAAAAAAAAAAAAAAAAAAAAAAAAAAAAAAAAAAAAAAAAAAAAAAAAAAAAAAAAAAAAAAAAAAAAAAAAAAAAAAAAAAAAAAAAAAAAAAAAAAAAAAAAAAAAAAAAAAAAAAAAAAAAAAAAAAAAAAAAAAAAAAAAPZYQParQFaDMOZ5XqmUzvZfM5AL9GLNwCG27UsdsUvsnlLNaFpwnoce3zvT0oPPE8uNkWmezKaSYC9ORs4dG8bIH1k=</c2pa:manifest></metadata><circle cx="663" cy="154" r="1.2" fill="white" opacity="0.12"/><circle cx="148" cy="840" r="0.6" fill="white" opacity="0.25"/><circle cx="1193" cy="59" r="0.8" fill="white" opacity="0.12"/><circle cx="176" cy="444" r="1.2" fill="white" opacity="0.12"/><circle cx="492" cy="92" r="1.2" fill="white" opacity="0.12"/><circle cx="1158" cy="126" r="0.8" fill="white" opacity="0.12"/><circle cx="1181" cy="599" r="1.2" fill="white" opacity="0.12"/><circle cx="452" cy="47" r="0.8" fill="white" opacity="0.25"/><circle cx="858" cy="147" r="0.6" fill="white" opacity="0.25"/><circle cx="1147" cy="835" r="0.8" fill="white" opacity="0.12"/><circle cx="1191" cy="584" r="0.8" fill="white" opacity="0.25"/><circle cx="199" cy="560" r="0.6" fill="white" opacity="0.12"/><circle cx="1267" cy="210" r="1.2" fill="white" opacity="0.35"/><circle cx="1591" cy="321" r="1.2" fill="white" opacity="0.35"/><circle cx="740" cy="306" r="0.8" fill="white" opacity="0.18"/><circle cx="1431" cy="798" r="0.8" fill="white" opacity="0.12"/><circle cx="1176" cy="307" r="1.2" fill="white" opacity="0.25"/><circle cx="1493" cy="459" r="1.0" fill="white" opacity="0.12"/><circle cx="241" cy="524" r="1.2" fill="white" opacity="0.18"/><circle cx="1550" cy="350" r="0.8" fill="white" opacity="0.35"/><circle cx="863" cy="40" r="0.6" fill="white" opacity="0.25"/><circle cx="696" cy="711" r="1.0" fill="white" opacity="0.35"/><circle cx="1187" cy="816" r="1.2" fill="white" opacity="0.12"/><circle cx="191" cy="276" r="1.2" fill="white" opacity="0.12"/><circle cx="124" cy="748" r="1.0" fill="white" opacity="0.35"/><circle cx="582" cy="733" r="1.2" fill="white" opacity="0.25"/><circle cx="46" cy="472" r="1.0" fill="white" opacity="0.18"/><circle cx="1251" cy="119" r="1.2" fill="white" opacity="0.12"/><circle cx="446" cy="786" r="1.0" fill="white" opacity="0.18"/><circle cx="1512" cy="253" r="1.2" fill="white" opacity="0.35"/><circle cx="1016" cy="82" r="0.8" fill="white" opacity="0.35"/><circle cx="822" cy="562" r="1.0" fill="white" opacity="0.18"/><circle cx="881" cy="884" r="1.0" fill="white" opacity="0.35"/><circle cx="734" cy="699" r="1.2" fill="white" opacity="0.18"/><circle cx="309" cy="84" r="0.8" fill="white" opacity="0.18"/><circle cx="475" cy="674" r="0.8" fill="white" opacity="0.12"/><circle cx="993" cy="851" r="0.8" fill="white" opacity="0.25"/><circle cx="577" cy="4" r="0.8" fill="white" opacity="0.35"/><circle cx="1094" cy="378" r="1.0" fill="white" opacity="0.18"/><circle cx="1414" cy="879" r="0.6" fill="white" opacity="0.35"/><circle cx="1597" cy="895" r="1.2" fill="white" opacity="0.35"/><circle cx="817" cy="403" r="0.6" fill="white" opacity="0.35"/><circle cx="1299" cy="410" r="0.6" fill="white" opacity="0.18"/><circle cx="137" cy="213" r="1.2" fill="white" opacity="0.18"/><circle cx="225" cy="348" r="0.6" fill="white" opacity="0.12"/><circle cx="0" cy="580" r="0.8" fill="white" opacity="0.12"/><circle cx="744" cy="628" r="0.6" fill="white" opacity="0.12"/><circle cx="425" cy="628" r="1.2" fill="white" opacity="0.18"/><circle cx="1299" cy="258" r="1.0" fill="white" opacity="0.25"/><circle cx="971" cy="125" r="0.6" fill="white" opacity="0.35"/><circle cx="954" cy="491" r="1.2" fill="white" opacity="0.25"/><circle cx="175" cy="147" r="0.6" fill="white" opacity="0.25"/><circle cx="1516" cy="271" r="1.2" fill="white" opacity="0.18"/><circle cx="1057" cy="23" r="0.8" fill="white" opacity="0.25"/><circle cx="300" cy="706" r="0.6" fill="white" opacity="0.25"/><circle cx="1316" cy="884" r="0.6" fill="white" opacity="0.25"/><circle cx="1061" cy="375" r="0.8" fill="white" opacity="0.25"/><circle cx="1580" cy="228" r="1.0" fill="white" opacity="0.18"/><circle cx="1255" cy="830" r="0.8" fill="white" opacity="0.18"/><circle cx="820" cy="757" r="0.8" fill="white" opacity="0.18"/><circle cx="1060" cy="504" r="1.0" fill="white" opacity="0.12"/><circle cx="57" cy="809" r="1.0" fill="white" opacity="0.35"/><circle cx="530" cy="198" r="1.0" fill="white" opacity="0.35"/><circle cx="1480" cy="357" r="1.0" fill="white" opacity="0.12"/><circle cx="451" cy="104" r="0.8" fill="white" opacity="0.35"/><circle cx="402" cy="345" r="0.8" fill="white" opacity="0.35"/><circle cx="1278" cy="624" r="0.6" fill="white" opacity="0.35"/><circle cx="1337" cy="352" r="0.6" fill="white" opacity="0.12"/><circle cx="795" cy="801" r="0.8" fill="white" opacity="0.35"/><circle cx="365" cy="444" r="1.0" fill="white" opacity="0.12"/><circle cx="1478" cy="405" r="1.2" fill="white" opacity="0.35"/><circle cx="1522" cy="86" r="0.8" fill="white" opacity="0.18"/><circle cx="260" cy="28" r="0.8" fill="white" opacity="0.35"/><circle cx="1343" cy="149" r="1.2" fill="white" opacity="0.25"/><circle cx="319" cy="561" r="0.8" fill="white" opacity="0.12"/><circle cx="29" cy="818" r="0.6" fill="white" opacity="0.18"/><circle cx="888" cy="892" r="0.8" fill="white" opacity="0.18"/><circle cx="57" cy="257" r="0.8" fill="white" opacity="0.25"/><circle cx="1026" cy="246" r="1.0" fill="white" opacity="0.25"/><circle cx="1114" cy="429" r="0.8" fill="white" opacity="0.12"/><circle cx="1515" cy="362" r="1.2" fill="white" opacity="0.35"/><circle cx="1027" cy="133" r="0.8" fill="white" opacity="0.12"/><circle cx="901" cy="795" r="0.8" fill="white" opacity="0.12"/><circle cx="1589" cy="818" r="0.8" fill="white" opacity="0.18"/><circle cx="289" cy="484" r="0.6" fill="white" opacity="0.12"/><circle cx="667" cy="698" r="1.2" fill="white" opacity="0.12"/><circle cx="1147" cy="58" r="0.8" fill="white" opacity="0.18"/><circle cx="567" cy="43" r="0.6" fill="white" opacity="0.35"/><circle cx="1150" cy="28" r="0.6" fill="white" opacity="0.35"/><circle cx="666" cy="627" r="0.8" fill="white" opacity="0.25"/><circle cx="926" cy="520" r="1.2" fill="white" opacity="0.18"/><circle cx="1431" cy="535" r="1.0" fill="white" opacity="0.18"/><circle cx="916" cy="140" r="1.2" fill="white" opacity="0.12"/><circle cx="803" cy="452" r="1.0" fill="white" opacity="0.12"/><circle cx="1374" cy="246" r="1.2" fill="white" opacity="0.12"/><circle cx="435" cy="685" r="1.0" fill="white" opacity="0.12"/><circle cx="1591" cy="158" r="1.0" fill="white" opacity="0.18"/><circle cx="518" cy="140" r="1.2" fill="white" opacity="0.18"/><circle cx="1529" cy="96" r="1.2" fill="white" opacity="0.35"/><circle cx="333" cy="683" r="0.8" fill="white" opacity="0.18"/><circle cx="1446" cy="441" r="1.2" fill="white" opacity="0.25"/><circle cx="862" cy="200" r="1.0" fill="white" opacity="0.25"/><circle cx="188" cy="739" r="1.0" fill="white" opacity="0.12"/><circle cx="692" cy="567" r="1.2" fill="white" opacity="0.35"/><circle cx="1440" cy="18" r="1.2" fill="white" opacity="0.25"/><circle cx="1059" cy="638" r="1.0" fill="white" opacity="0.12"/><circle cx="231" cy="807" r="0.8" fill="white" opacity="0.12"/><circle cx="172" cy="271" r="1.0" fill="white" opacity="0.12"/><circle cx="1595" cy="185" r="1.0" fill="white" opacity="0.18"/><circle cx="864" cy="869" r="1.0" fill="white" opacity="0.35"/><circle cx="305" cy="549" r="1.2" fill="white" opacity="0.25"/><circle cx="183" cy="285" r="0.6" fill="white" opacity="0.18"/><circle cx="871" cy="74" r="1.0" fill="white" opacity="0.12"/><circle cx="1299" cy="90" r="1.0" fill="white" opacity="0.12"/><circle cx="1245" cy="876" r="0.8" fill="white" opacity="0.12"/><circle cx="541" cy="883" r="0.6" fill="white" opacity="0.35"/><circle cx="23" cy="347" r="1.2" fill="white" opacity="0.25"/><circle cx="1273" cy="132" r="0.6" fill="white" opacity="0.18"/><circle cx="224" cy="165" r="1.0" fill="white" opacity="0.12"/><circle cx="370" cy="206" r="1.0" fill="white" opacity="0.25"/><circle cx="1087" cy="777" r="0.8" fill="white" opacity="0.25"/><circle cx="912" cy="512" r="0.8" fill="white" opacity="0.25"/><circle cx="710" cy="822" r="0.6" fill="white" opacity="0.25"/><circle cx="75" cy="15" r="0.6" fill="white" opacity="0.18"/><circle cx="1053" cy="486" r="0.8" fill="white" opacity="0.35"/><circle cx="217" cy="674" r="1.2" fill="white" opacity="0.35"/><circle cx="1118" cy="854" r="1.2" fill="white" opacity="0.25"/><circle cx="1408" cy="220" r="0.8" fill="white" opacity="0.25"/><circle cx="406" cy="852" r="0.8" fill="white" opacity="0.35"/><circle cx="711" cy="55" r="0.8" fill="white" opacity="0.12"/><circle cx="144" cy="640" r="1.0" fill="white" opacity="0.35"/><circle cx="334" cy="56" r="0.6" fill="white" opacity="0.35"/><circle cx="1036" cy="686" r="1.0" fill="white" opacity="0.18"/><circle cx="1418" cy="300" r="0.6" fill="white" opacity="0.35"/><circle cx="379" cy="161" r="1.0" fill="white" opacity="0.35"/><circle cx="7" cy="269" r="1.0" fill="white" opacity="0.25"/><circle cx="1120" cy="331" r="0.8" fill="white" opacity="0.12"/><circle cx="633" cy="223" r="1.0" fill="white" opacity="0.18"/><circle cx="2" cy="343" r="1.2" fill="white" opacity="0.12"/><circle cx="972" cy="285" r="0.8" fill="white" opacity="0.18"/></svg>